<svg xmlns="http://www.w3.org/2000/svg" version="1.1" xmlns:xlink="http://www.w3.org/1999/xlink" xmlns:svgjs="http://svgjs.dev/svgjs" viewBox="0 0 600 600" opacity="1"><path d="M507.63214250470776 15.205947721907933C540.9741911497273 5.7917225707664475 476.25137468244213 13.898418858557381 509.9856886472859 13.636913085887272C543.7200026121296 13.375407313217163 676.5652225421427 -20.018943891019184 710.0380262937703 13.636913085887272C743.5108300453978 47.29277006279373 710.4302585528849 155.13795140873336 710.8225111570515 215.57205494732602C711.2147637612181 276.00615848591866 712.3915419187703 310.4988509067987 712.3915419187703 376.2415343174432C712.3915419187703 441.98421772808774 774.6300393349486 570.6714659580675 710.8225111570515 610.0281554111925C647.0149829791544 649.3848448643175 381.32461178367913 616.618080541401 329.54637285138745 612.3816710361925C277.7681339190958 608.1452615309843 418.0662575966674 604.9287342279245 400.1530775633015 584.6096983799425C382.2398975299356 564.2906625319608 217.22942745750726 525.7708006748644 222.06729265119213 490.4674559483026C226.905157844877 455.1641112217401 415.58194363182366 412.5385822503859 429.1802687254109 372.7896300205682C442.7785938189981 333.0406777907505 297.51184729800207 286.3356683303013 303.65724321271557 251.97374256939634C309.8026391274291 217.6118168084914 465.00661861961663 196.92665521791523 466.05264421369213 166.61807545513852C467.09866980776764 136.30949569236185 303.00348039533276 95.35761861494127 309.9333967771687 70.12226399273618C316.86331315900463 44.886909370531086 474.2900938596882 24.62017287304942 507.63214250470776 15.205947721907933C540.9741911497273 5.7917225707664475 476.25137468244213 13.898418858557381 509.9856886472859 13.636913085887272 " fill="hsl(340, 45%, 50%)" transform="matrix(0.8917141319551064,-0.17627306267577855,-0.2580466070658926,1.4141223858097203,111.79483208432231,-58.99849912400799)" stroke-width="8" stroke="hsl(340, 45%, 30%)"></path></svg>